:SAMPLES-PER-SECOND 24
:FULLY-SPECIFIED
:DEGREES
875
root  -4.92337 37.6468 56.35 172.584 -74.0264 -174.193
RightUpLeg  19.2008 -8.94715 -8.8239
RightLeg  11.7942 -3.97275 1.21165
RightFoot  -20.4158 0.897111 13.0153
RightToes  -1.46215e-006 3.27826e-006 1.63871e-007
Spine  -0.821232 6.61086 16.7269
Spine1  12.4868 9.56251 -10.188
HEad  -6.06878 4.31617 -7.37525
LeftShoulder1  3.00162 -4.68471 -30.6425
LeftArm  53.1496 -19.0755 -42.6604
LeftForeArm  4.91573 -15.2212 -11.9594
LeftHand  -0.525127 1.1536 14.3661
RightShoulder  2.01023 4.627 18.2207
RightArm  -10.691 71.4322 62.8523
RightForeArm  -17.9632 74.1885 51.3078
RightHand  -0.633059 1.30777 -11.1023
LeftUpLeg  -29.2603 12.2935 5.61648
LeftLeg  34.604 -0.196368 0.271104
LeftFoot  2.6477 0.57948 -4.85086
LeftToes  1.24762e-006 1.46925e-008 1.29056e-009
876
root  -5.00438 37.9431 56.4603 173.797 -77.5176 -174.751
RightUpLeg  19.8702 -8.4029 -8.50641
RightLeg  9.9567 -7.40891 1.2859
RightFoot  -17.2436 0.582463 13.52
RightToes  -1.46215e-006 3.27826e-006 1.63871e-007
Spine  -1.97365 7.20779 15.9814
Spine1  12.3782 10.2986 -11.0555
HEad  -4.54204 -0.229053 -5.75059
LeftShoulder1  2.95262 -4.56335 -30.5849
LeftArm  53.4519 -17.359 -42.253
LeftForeArm  5.2941 -15.9026 -11.2732
LeftHand  -0.537132 0.921731 13.9531
RightShoulder  2.08435 4.68235 19.0198
RightArm  -23.8841 69.0349 47.5704
RightForeArm  -0.607555 76.6236 67.9465
RightHand  -0.718679 1.48096 -12.2752
LeftUpLeg  -27.9778 14.1641 1.95846
LeftLeg  42.7263 8.57472 8.78246
LeftFoot  -1.75905 0.255292 -2.91997
LeftToes  1.24762e-006 1.46925e-008 1.29056e-009
877
root  -5.30972 38.0724 56.6846 171.586 -83.5683 -172.966
RightUpLeg  21.4308 -12.889 -10.3994
RightLeg  11.7764 -5.02903 1.37017
RightFoot  -16.024 0.600373 17.0702
RightToes  -1.46215e-006 3.27826e-006 1.63871e-007
Spine  -3.71466 6.784 13.52
Spine1  13.1226 9.42836 -10.1355
HEad  -2.6411 -5.28786 -3.7743
LeftShoulder1  2.8963 -4.5469 -29.9514
LeftArm  54.6512 -15.3062 -42.7524
LeftForeArm  5.14202 -17.0493 -10.1607
LeftHand  -0.568429 0.624808 13.8711
RightShoulder  2.22888 4.70467 20.8436
RightArm  -34.8007 63.1317 32.264
RightForeArm  24.0032 77.5583 92.0447
RightHand  -0.757954 0.97308 -13.9216
LeftUpLeg  -23.652 15.1258 -1.4841
LeftLeg  44.2115 13.313 13.8426
LeftFoot  -7.21028 0.174054 -3.59577
LeftToes  1.24762e-006 1.46925e-008 1.29056e-009
878
root  -5.69055 38.1769 57.0461 -7.34882 -88.7923 4.65742
RightUpLeg  20.1979 -19.9501 -13.0141
RightLeg  22.118 -1.65036 -1.0776
RightFoot  -13.9447 0.403923 23.7081
RightToes  -1.46215e-006 3.27826e-006 1.63871e-007
Spine  -5.03638 5.77495 9.95319
Spine1  13.7454 7.71048 -8.35713
HEad  0.198944 -11.3026 -1.5979
LeftShoulder1  2.87789 -4.59239 -29.5145
LeftArm  57.7799 -13.938 -43.7494
LeftForeArm  3.78834 -17.9561 -9.41306
LeftHand  -0.559669 0.698318 13.8673
RightShoulder  2.44618 4.80276 23.2931
RightArm  -39.5886 51.0745 21.1483
RightForeArm  53.7544 75.1543 123.102
RightHand  -0.770131 0.688814 -14.7773
LeftUpLeg  -18.1143 14.6048 -3.88387
LeftLeg  38.4261 13.9334 11.9909
LeftFoot  -11.4062 0.0710835 -2.65242
LeftToes  1.24762e-006 1.46925e-008 1.29056e-009
879
root  -5.93674 38.2733 57.4072 -3.88251 -82.8008 -0.379669
RightUpLeg  10.8469 -17.6685 -11.5279
RightLeg  42.3697 -6.66429 -7.1428
RightFoot  -0.264731 -2.36217 23.7251
RightToes  -1.46215e-006 3.27826e-006 1.63871e-007
Spine  -5.07098 5.16244 6.53397
Spine1  13.7365 6.40669 -6.64815
HEad  4.33242 -16.8545 0.177837
LeftShoulder1  2.87767 -4.67809 -29.133
LeftArm  58.0678 -13.093 -44.8046
LeftForeArm  5.00627 -17.4922 -9.84584
LeftHand  -0.497625 1.02534 13.2174
RightShoulder  2.87262 5.19778 27.0216
RightArm  -37.4355 34.0209 14.611
RightForeArm  71.5342 69.6386 142.889
RightHand  -0.704272 0.321429 -14.3656
LeftUpLeg  -13.6311 15.0398 -4.38831
LeftLeg  32.5965 10.1682 7.33107
LeftFoot  -13.0863 0.0696977 -0.568093
LeftToes  1.24762e-006 1.46925e-008 1.29056e-009
880
root  -5.92176 38.1382 57.5209 -9.35883 -78.6353 3.46666
RightUpLeg  -4.36194 -14.989 -11.3298
RightLeg  64.6334 -2.56172 -6.48651
RightFoot  21.7168 -4.65006 16.0981
RightToes  -1.46215e-006 3.27826e-006 1.63871e-007
Spine  -3.86829 4.47137 0.585846
Spine1  14.3085 4.33441 -4.15382
HEad  8.4675 -19.6934 1.19955
LeftShoulder1  2.87113 -4.72973 -28.8266
LeftArm  57.0906 -12.2595 -45.1426
LeftForeArm  5.86134 -17.7197 -9.51279
LeftHand  -0.476301 0.978687 12.5246
RightShoulder  3.40865 5.70778 31.1146
RightArm  -29.3078 16.1772 12.1301
RightForeArm  78.362 65.7858 149.993
RightHand  -0.542397 -0.789743 -13.6556
LeftUpLeg  -11.4527 15.9362 -4.58927
LeftLeg  32.3328 5.58873 4.18628
LeftFoot  -14.1706 0.0893019 0.173066
LeftToes  1.24762e-006 1.46925e-008 1.29056e-009
881
root  -5.98642 38.0489 57.4781 -9.91248 -74.0628 1.77156
RightUpLeg  -20.6783 -15.5618 -11.8357
RightLeg  84.1809 0.644276 4.9596
RightFoot  30.769 -4.66235 12.5959
RightToes  -1.46215e-006 3.27826e-006 1.63871e-007
Spine  -2.76687 2.57129 -6.22004
Spine1  16.0345 0.425386 0.25893
HEad  11.3897 -20.1297 1.45369
LeftShoulder1  2.9009 -4.67553 -29.4342
LeftArm  58.7025 -12.638 -44.9051
LeftForeArm  3.58305 -19.1873 -8.11876
LeftHand  -0.476704 1.05701 12.7587
RightShoulder  3.79082 6.06028 33.7578
RightArm  -18.2563 -0.0223648 12.4037
RightForeArm  77.7838 65.8577 149.864
RightHand  -0.366172 -2.33417 -13.6971
LeftUpLeg  -9.21439 14.3295 -4.07638
LeftLeg  33.0632 3.24775 2.68794
LeftFoot  -14.5828 0.0998307 0.44735
LeftToes  1.24762e-006 1.46925e-008 1.29056e-009
882
root  -6.30086 38.4903 57.4875 -3.27264 -68.4715 -8.67726
RightUpLeg  -36.2801 -20.3996 -10.5953
RightLeg  99.0985 -1.9273 11.7229
RightFoot  27.7435 -4.06265 11.9844
RightToes  -1.46215e-006 3.27826e-006 1.63871e-007
Spine  -1.30758 -0.189842 -9.26541
Spine1  17.6323 -4.30039 6.28983
HEad  13.6237 -20.16 1.59707
LeftShoulder1  2.93222 -4.56641 -30.3154
LeftArm  61.7219 -14.779 -45.421
LeftForeArm  0.477449 -20.186 -7.31291
LeftHand  -0.454366 1.38259 13.1053
RightShoulder  4.0404 6.27247 35.427
RightArm  -8.78017 -14.4326 12.1793
RightForeArm  68.5999 68.6769 144.844
RightHand  -0.165699 -3.9593 -12.4259
LeftUpLeg  -4.28088 9.98249 -0.222806
LeftLeg  30.5895 2.21855 1.82046
LeftFoot  -13.4672 0.0960687 0.823403
LeftToes  1.24762e-006 1.46925e-008 1.29056e-009
883
root  -6.8408 38.9134 57.3633 1.08197 -62.3909 -18.5989
RightUpLeg  -51.7715 -26.2567 -9.22873
RightLeg  109.028 -4.87575 13.364
RightFoot  26.3585 -4.33616 13.2041
RightToes  -1.46215e-006 3.27826e-006 1.63871e-007
Spine  1.93667 -2.5799 -10.5383
Spine1  18.2571 -8.55133 11.6431
HEad  15.7575 -20.0578 1.77624
LeftShoulder1  2.88353 -4.44863 -30.239
LeftArm  64.3388 -17.467 -47.0514
LeftForeArm  -1.70389 -20.8639 -6.79911
LeftHand  -0.464132 1.11009 12.5709
RightShoulder  4.27193 6.44682 36.9912
RightArm  -2.89633 -26.2931 10.7344
RightForeArm  55.2862 72.1042 136.057
RightHand  -0.0392715 -5.15784 -7.21428
LeftUpLeg  1.42286 5.79155 5.97038
LeftLeg  29.6516 -0.116293 0.316563
LeftFoot  -13.2875 0.0924497 0.747694
LeftToes  1.24762e-006 1.46925e-008 1.29056e-009
884
root  -7.76105 39.3173 57.158 3.11359 -55.9891 -27.6667
RightUpLeg  -66.2188 -31.5523 -8.71408
RightLeg  114.171 -6.55674 13.8454
RightFoot  28.7461 -4.86533 13.8481
RightToes  -1.46215e-006 3.27826e-006 1.63871e-007
Spine  5.80869 -4.76625 -9.87082
Spine1  18.7969 -12.024 15.4792
HEad  16.8139 -19.3806 1.41134
LeftShoulder1  2.76312 -4.38931 -28.9631
LeftArm  65.5472 -20.0939 -49.7081
LeftForeArm  -2.33502 -21.5847 -6.17483
LeftHand  -0.478946 0.847466 12.2424
RightShoulder  4.40319 6.54752 37.8401
RightArm  1.19167 -35.2631 9.64703
RightForeArm  44.741 74.4556 126.619
RightHand  -0.0285174 -5.53736 -0.778152
LeftUpLeg  7.59091 0.897451 13.5245
LeftLeg  29.0195 -2.37872 -1.04225
LeftFoot  -13.5634 0.0876301 0.321457
LeftToes  1.24762e-006 1.46925e-008 1.29056e-009
885
root  -8.41842 39.998 57.0709 6.04297 -49.863 -37.977
RightUpLeg  -79.9018 -36.5064 -7.38864
RightLeg  111.966 -4.5457 10.8396
RightFoot  28.9598 -5.11712 14.4516
RightToes  -1.46215e-006 3.27826e-006 1.63871e-007
Spine  9.01602 -6.84626 -5.21862
Spine1  19.7057 -14.4309 18.489
HEad  16.7463 -19.5101 1.62807
LeftShoulder1  2.60527 -4.48183 -26.5131
LeftArm  67.0001 -22.4141 -53.9587
LeftForeArm  -3.505 -21.9088 -5.98585
LeftHand  -0.451611 1.20274 12.4855
RightShoulder  4.39722 6.54573 37.7904
RightArm  5.5859 -42.2304 8.87461
RightForeArm  39.0588 75.326 121.621
RightHand  -0.00661208 -4.84811 5.34641
LeftUpLeg  13.5417 -5.29395 21.6595
LeftLeg  24.7799 -2.06943 -0.694104
LeftFoot  -11.8647 0.0706904 -0.160029
LeftToes  1.24762e-006 1.46925e-008 1.29056e-009
